<?xml version="1.0" encoding="UTF-8"?>
<svg id="_圖層_1" data-name="圖層_1" xmlns="http://www.w3.org/2000/svg" version="1.1" viewBox="0 0 228.6 35.5">
  <!-- Generator: Adobe Illustrator 29.0.0, SVG Export Plug-In . SVG Version: 2.1.0 Build 186)  -->
  <defs>
    <style>
      .st0 {
        fill: #dcc801;
      }
    </style>
  </defs>
  <g>
    <path class="st0" d="M141.7,25.1h-8.9v5.6h-3.2v-5.6h-11.7v-3h4.1v-6.8h7.6v-3.1h-5.6c-1.1,1.8-2.3,3.5-3.5,4.7-.6-.5-1.9-1.6-2.7-2,2.3-2,4.3-5.3,5.5-8.7l3.1.8c-.2.7-.5,1.4-.9,2.1h14.7v3h-7.5v3.1h6.9v2.9h-6.9v4h8.9v3ZM129.6,22.2v-4h-4.5v4h4.5Z"/>
    <path class="st0" d="M151.4,15.5c0,4.4-.3,10.9-2.5,15.1-.6-.4-2-1.1-2.8-1.3,2.1-4,2.3-9.8,2.3-13.8v-6.9h9.7c-.2-.6-.4-1.2-.6-1.7l3.1-.7c.4.7.7,1.6,1,2.4h8.6v2.9h-18.7v4ZM168.6,22.2c-1.1,2-2.7,3.6-4.6,4.8,2,.5,4.2.8,6.5.9-.6.6-1.4,1.9-1.8,2.7-3.2-.3-6-.9-8.4-1.9-2.5.9-5.3,1.4-8.2,1.7-.2-.7-.8-1.9-1.3-2.6,2.2-.2,4.2-.4,6.1-.9-1.2-.8-2.3-1.8-3.1-2.8l1-.4h-2.8v-2.4h14.5c0-.1,1.9.9,1.9.9ZM155.5,20.3v-4.1h-3.5v-2.4h3.5v-1.7h2.9v1.7h4.7v-1.7h3.1v1.7h3.7v2.4h-3.7v4.1h-10.7ZM157.1,23.8c.9.8,2.1,1.5,3.4,2.1,1.3-.6,2.5-1.2,3.4-2.1h-6.9ZM158.4,16.2v1.7h4.7v-1.7h-4.7Z"/>
    <path class="st0" d="M188.5,6.4c0,1.1,0,2.5-.2,4.1.4,3.5,2,13.3,11,17.3-1,.8-1.8,1.8-2.3,2.7-5.8-2.8-8.7-7.8-10.2-12.3-1.4,4.6-4.2,9.3-9.6,12.5-.5-.8-1.5-1.8-2.6-2.5,10.6-5.6,10.1-17.3,10.2-21.7h3.6Z"/>
    <path class="st0" d="M213.6,20.6c-.9.3-1.8.6-2.8.9v9.3h-2.8v-8.4c-1.4.4-2.7.8-3.9,1.1l-.8-2.9c1.3-.3,2.9-.7,4.7-1.2v-5h-1.7c-.3,1.3-.6,2.4-1,3.3-.5-.4-1.6-1.1-2.2-1.4.8-2.1,1.2-5.3,1.5-8.4l2.6.4c-.1,1-.2,2.1-.4,3.1h1.2v-5h2.8v5h2.2v2.9h-2.2v4.2l2.4-.7.4,2.7ZM227.6,10.4s0,1,0,1.4c-.5,11.6-1,15.8-2,17.1-.6.9-1.2,1.2-2,1.4-.7.1-1.8.1-2.9,0,0-.9-.4-2.2-.9-3,1,.1,1.8.1,2.3.1s.6-.1,1-.5c.6-.8,1.1-4.4,1.5-13.7h-.1c-1.3,6.6-4,13.3-8.1,16.8-.6-.6-1.7-1.4-2.5-1.8,4.2-3,6.8-8.9,8.1-15h-1.2c-1.1,4.2-3.3,8.9-6,11.4-.6-.6-1.6-1.3-2.4-1.7,2.6-2,4.6-5.9,5.7-9.6h-1.3c-.8,1.8-1.7,3.4-2.7,4.7-.5-.5-1.7-1.4-2.3-1.7,2.1-2.3,3.5-6,4.3-9.8l2.8.5c-.3,1.2-.6,2.4-1,3.5h9.8Z"/>
  </g>
  <g>
    <path class="st0" d="M22.3,7.4c-.1,10.2-.2,19.9,1,19.9s.4-1.6.4-3.6c.5.9,1.1,1.9,1.7,2.5-.3,3.1-.8,4.6-2.4,4.6-3.8,0-3.8-9.3-3.8-20.4H6.5v6.2c0,4.3-.4,10.5-3.3,14.3-.5-.5-1.8-1.4-2.5-1.7,2.6-3.5,2.9-8.7,2.9-12.6V7.4h18.7ZM17.6,23.2c1.1,1.8,2.1,4.2,2.4,5.8l-2.5.8c-.1-.5-.3-1.1-.4-1.8-3.8.3-7.7.6-10.6.9l-.2-2.8c1.4,0,3.2-.2,5.2-.3v-2.7h-4v-7.5h4v-1.7h-4.1v-2.4h11.1v2.4h-4.2v1.7h4.2v7.5h-4.2v2.5h1.9c-.3-.7-.5-1.2-.8-1.7l2.4-.8ZM11.4,20.8v-2.9h-1.7v2.9h1.7ZM14.1,18v2.9h1.7v-2.9h-1.7Z"/>
    <path class="st0" d="M50.4,22.8h3.3v2.3h-3.3v2.7c0,1.4-.3,2.1-1.3,2.5-1,.4-2.4.4-4.2.4-.1-.8-.5-1.8-.9-2.6,1.2,0,2.5,0,2.9,0,.4,0,.5-.1.5-.4v-2.6h-5.8c1,.9,2,2,2.6,2.8l-2.4,1.6c-.6-1-1.9-2.5-3-3.6l1.3-.8h-3.6v-2.3h11v-1.1c-3.8.1-7.4.2-10.2.2l-.3-2.3c1.8,0,4.2,0,6.8,0v-1h-5.7v-7.2h5.7v-1h-6.8v-1.2c-.5,1.2-1.1,2.4-1.8,3.6v17.9h-2.9v-13.3c-.6.8-1.2,1.5-1.8,2.1-.3-.8-1.1-2.5-1.6-3.2,2.3-2.3,4.6-6,5.9-9.8l2.9.9-.3.8h6.3v-1.6h3v1.6h6.7v2.2h-6.7v1h5.9v7.2h-1.1c1,.9,1.9,1.9,2.5,2.7l-2.2,1.2c-.2-.3-.4-.5-.6-.9h-.8v1.2ZM40.9,14.1h2.9v-1.1h-2.9v1.1ZM43.8,16.8v-1.1h-2.9v1.1h2.9ZM46.8,13.1v1.1h3v-1.1h-3ZM49.8,15.7h-3v1.1h3v-1.1ZM46.8,19.5h2.5c-.3-.3-.6-.6-.9-.9h.2c0-.1-1.8-.1-1.8-.1v1Z"/>
    <path class="st0" d="M76.3,23.3v7.3h-3v-7.3h-5.9v-2.6h5.9v-1.6h-3.8v-7.5h-1.8v2.5h-1.1c0,2.8-.4,6.2-1.7,9.4,1.1,1.1,2,2.1,2.7,3l-1.8,2.4c-.5-.8-1.3-1.7-2.2-2.7-.9,1.5-2.2,3-3.7,4.3-.4-.6-1.3-1.5-2-1.9,1.7-1.4,2.9-2.9,3.8-4.5-1.1-1.1-2.3-2.3-3.3-3.3.4-1.7.9-3.8,1.2-6.1h-1.4c0,0-.3-2.7-.3-2.7h2.1c.3-1.9.4-3.8.5-5.4h2.6c-.1,1.7-.3,3.5-.6,5.2h1.4v-1.7h2.5v1.5h1.1v-2.5h1.8v-2.7h2.8v2.7h4.6v-2.7h2.9v2.7h2v2.6h-2v7.5h-3.5v1.6h5.6v2.6h-5.6ZM62.2,14.5c-.3,1.9-.7,3.8-1,5.4.5.5,1.1,1,1.6,1.5.9-2.5,1.1-5,1.2-7.1h-1.7ZM72.7,24.6c-.8,2.1-2.3,4.4-3.8,5.6-.4-.7-1.4-1.6-2-2.1,1.4-.9,2.9-2.7,3.6-4.3l2.2.8ZM72.2,11.7v1.4h4.6v-1.4h-4.6ZM72.2,16.7h4.6v-1.4h-4.6v1.4ZM79.1,23.9c1.1,1.6,2.6,3.7,3.3,5.1l-2.4,1.1c-.6-1.4-2-3.6-3.2-5.3l2.2-.9Z"/>
  </g>
  <g>
    <path class="st0" d="M89.5,14.3v-.2c0-2.4,1.1-4.4,4.1-6.5,2-1.4,2.5-1.9,2.5-3.1s-.6-1.9-1.7-1.9-1.8.8-2,2h-2.9c.2-2.4,1.8-4.4,4.9-4.4s4.8,2.1,4.8,4.2-.9,3-3.4,4.8c-1.7,1.2-2.4,2-2.6,2.6h6.5l-.4,2.5h-9.8Z"/>
    <path class="st0" d="M111.9,7.3c0,3.8-1.2,7.2-5.3,7.2s-5.3-3.3-5.3-7.2,1.4-7.2,5.4-7.2,5.2,3.2,5.2,7.1ZM104.4,7.4c0,2.5.3,4.8,2.2,4.8s2.2-2.1,2.2-4.8-.3-4.7-2.1-4.7-2.3,1.7-2.3,4.7Z"/>
    <path class="st0" d="M89.5,35.3v-.2c0-2.4,1.1-4.4,4.1-6.5,2-1.4,2.5-1.9,2.5-3.1s-.6-1.9-1.7-1.9-1.8.8-2,2h-2.9c.2-2.4,1.8-4.4,4.9-4.4s4.8,2.1,4.8,4.2-.9,3-3.4,4.8c-1.7,1.2-2.4,2-2.6,2.6h6.5l-.4,2.5h-9.8Z"/>
    <path class="st0" d="M107.1,35.3v-3.1h-6.2v-2.6l5.8-8.1h3.3v8.3h1.7l-.3,2.4h-1.4v3.1h-2.8ZM107.1,27.3c0-1.5,0-2.3,0-3.2-.5,1.2-2.3,3.8-3.6,5.7h3.6v-2.5Z"/>
  </g>
</svg>